<svg width="250" height="72" viewBox="0 0 250 72" fill="none" xmlns="http://www.w3.org/2000/svg">
<g clip-path="url(#clip0_21524_4160)">
<path d="M103.738 22.5165C103.738 25.4789 106.192 27.8488 109.07 27.8488C112.032 27.8488 114.402 25.4789 114.402 22.5165C114.402 19.4694 112.032 17.0994 109.07 17.0994C106.192 17.0994 103.738 19.4694 103.738 22.5165ZM129.892 55.6957C129.892 47.4009 136.663 40.545 145.042 40.545C153.422 40.545 160.193 47.4009 160.193 55.6957C160.193 64.1598 153.422 70.9311 145.042 70.9311C136.663 70.9311 129.892 64.1598 129.892 55.6957ZM93.0728 70L146.143 8.21213H161.04L107.97 70H93.0728ZM139.795 55.6957C139.795 58.7428 142.165 61.1127 145.042 61.1127C148.005 61.1127 150.375 58.7428 150.375 55.6957C150.375 52.7333 148.005 50.3633 145.042 50.3633C142.165 50.3633 139.795 52.7333 139.795 55.6957ZM93.9192 22.5165C93.9192 14.0524 100.691 7.36572 109.07 7.36572C117.449 7.36572 124.221 14.0524 124.221 22.5165C124.221 30.8113 117.449 37.5825 109.07 37.5825C100.691 37.5825 93.9192 30.8113 93.9192 22.5165Z" fill="black" fill-opacity="0.25"/>
<path d="M61.345 59.4199C68.8781 59.4199 73.5333 55.1032 73.5333 40.0371V37.4979C73.5333 22.5165 68.6241 18.7076 61.4297 18.7076C54.0659 18.7076 49.1567 22.9397 49.1567 37.4979V40.0371C49.1567 55.2725 53.812 59.4199 61.345 59.4199ZM61.345 70.8465C47.0407 70.8465 37.2223 62.6363 37.2223 40.2064V37.3286C37.2223 15.9145 47.8025 7.36572 61.345 7.36572C75.1415 7.36572 85.5523 16.1684 85.5523 37.3286V40.2064C85.5523 62.8902 75.4801 70.8465 61.345 70.8465Z" fill="black" fill-opacity="0.25"/>
<path d="M27.0661 70H15.0471V25.9021C12.8464 30.3034 8.10652 32.9273 2.26629 32.9273H0.827393V21.1622H1.2506C10.8997 21.1622 15.3856 16.4223 15.4703 8.21213H27.0661V70Z" fill="black" fill-opacity="0.25"/>
<path d="M103.738 15.5165C103.738 18.4789 106.192 20.8488 109.07 20.8488C112.032 20.8488 114.402 18.4789 114.402 15.5165C114.402 12.4694 112.032 10.0994 109.07 10.0994C106.192 10.0994 103.738 12.4694 103.738 15.5165ZM129.892 48.6957C129.892 40.4009 136.663 33.545 145.042 33.545C153.422 33.545 160.193 40.4009 160.193 48.6957C160.193 57.1598 153.422 63.9311 145.042 63.9311C136.663 63.9311 129.892 57.1598 129.892 48.6957ZM93.0728 63L146.143 1.21213H161.04L107.97 63H93.0728ZM139.795 48.6957C139.795 51.7428 142.165 54.1127 145.042 54.1127C148.005 54.1127 150.375 51.7428 150.375 48.6957C150.375 45.7333 148.005 43.3633 145.042 43.3633C142.165 43.3633 139.795 45.7333 139.795 48.6957ZM93.9192 15.5165C93.9192 7.05236 100.691 0.365723 109.07 0.365723C117.449 0.365723 124.221 7.05236 124.221 15.5165C124.221 23.8113 117.449 30.5825 109.07 30.5825C100.691 30.5825 93.9192 23.8113 93.9192 15.5165Z" fill="#FFED4E"/>
<path d="M61.345 52.4199C68.8781 52.4199 73.5333 48.1032 73.5333 33.0371V30.4979C73.5333 15.5165 68.6241 11.7076 61.4297 11.7076C54.0659 11.7076 49.1567 15.9397 49.1567 30.4979V33.0371C49.1567 48.2725 53.812 52.4199 61.345 52.4199ZM61.345 63.8464C47.0407 63.8464 37.2223 55.6363 37.2223 33.2064V30.3286C37.2223 8.91446 47.8025 0.365723 61.345 0.365723C75.1415 0.365723 85.5523 9.16838 85.5523 30.3286V33.2064C85.5523 55.8902 75.4801 63.8464 61.345 63.8464Z" fill="#FFED4E"/>
<path d="M27.0661 63H15.0471V18.9021C12.8464 23.3034 8.10652 25.9273 2.26629 25.9273H0.827393V14.1622H1.2506C10.8997 14.1622 15.3856 9.42231 15.4703 1.21213H27.0661V63Z" fill="#FFED4E"/>
<path d="M231.315 71.1407V42.5758H249.706V47.8192H236.871V54.4321H249.706V59.5973H236.871V71.1407H231.315Z" fill="black" fill-opacity="0.25"/>
<path d="M208.311 71.1407V42.5758H226.702V47.8192H213.867V54.4321H226.702V59.5973H213.867V71.1407H208.311Z" fill="black" fill-opacity="0.25"/>
<path d="M189.377 71.532C181.277 71.532 174.781 64.9581 174.781 56.8582C174.781 48.7583 181.277 42.1845 189.377 42.1845C197.516 42.1845 204.051 48.7583 204.051 56.8582C204.051 64.9581 197.555 71.532 189.377 71.532ZM189.377 66.0929C194.581 66.0929 198.494 61.906 198.494 56.8582C198.494 51.7713 194.542 47.5844 189.377 47.5844C184.251 47.5844 180.338 51.7713 180.338 56.8582C180.338 61.906 184.251 66.0929 189.377 66.0929Z" fill="black" fill-opacity="0.25"/>
<path d="M231.315 64.1407V35.5758H249.706V40.8192H236.871V47.4321H249.706V52.5973H236.871V64.1407H231.315Z" fill="white"/>
<path d="M208.311 64.1407V35.5758H226.702V40.8192H213.867V47.4321H226.702V52.5973H213.867V64.1407H208.311Z" fill="white"/>
<path d="M189.377 64.532C181.277 64.532 174.781 57.9581 174.781 49.8582C174.781 41.7583 181.277 35.1845 189.377 35.1845C197.516 35.1845 204.051 41.7583 204.051 49.8582C204.051 57.9581 197.555 64.532 189.377 64.532ZM189.377 59.0929C194.581 59.0929 198.494 54.906 198.494 49.8582C198.494 44.7713 194.542 40.5844 189.377 40.5844C184.251 40.5844 180.338 44.7713 180.338 49.8582C180.338 54.906 184.251 59.0929 189.377 59.0929Z" fill="white"/>
</g>
<defs>
<clipPath id="clip0_21524_4160">
<rect width="250" height="72" fill="white"/>
</clipPath>
</defs>
</svg>
